<svg width="1920" height="1080" viewBox="0 0 1920 1080" fill="none" xmlns="http://www.w3.org/2000/svg">
<rect width="1920" height="1080" fill="#ECE2D6"/>
<path d="M1800 476.825C1800 671.022 1752.78 972 1558.59 972C1364.41 972 979 635.86 979 441.663C979 247.465 1323.45 160 1517.63 160C1711.82 160 1800 282.628 1800 476.825Z" fill="#E3D4C5"/>
<path d="M1274.5 877.881C1478.59 877.881 1644.04 869.034 1644.04 858.121C1644.04 847.208 1478.59 838.36 1274.5 838.36C1070.41 838.36 904.956 847.208 904.956 858.121C904.956 869.034 1070.41 877.881 1274.5 877.881Z" fill="white"/>
<path d="M1226.49 410.737H1094.27C1074.9 410.737 1059.19 426.445 1059.19 445.823C1059.19 465.201 1074.9 480.91 1094.27 480.91H1226.49C1245.87 480.91 1261.58 465.201 1261.58 445.823C1261.58 426.445 1245.87 410.737 1226.49 410.737Z" fill="#F06D57"/>
<path d="M910.806 594.156C910.693 591.206 910.006 584.555 905.132 578.795C903.365 576.708 900.461 573.297 897.452 573.677C892.112 574.35 889.749 586.95 889.017 590.844C887.332 599.839 886.017 619.053 901.066 648.368C901.31 651.397 902.237 654.332 903.777 656.952C907.454 663.168 913.417 665.391 915.22 665.987C920.877 673.032 928.311 678.439 936.756 681.65C957.592 689.421 976.25 680.051 979.525 678.334L998.048 687.821L1176.05 752.275L1383.93 658.664L1403.03 659.31C1411.06 658.091 1418.53 654.483 1424.47 648.955C1430.42 643.428 1434.56 636.238 1436.36 628.323C1441.52 619.866 1445.06 610.52 1446.81 600.765C1448.33 591.37 1448.13 581.775 1446.2 572.453C1445.06 566.873 1443 557.327 1438.07 556.491C1436.55 556.229 1435.27 556.898 1434.46 557.318C1427.23 561.081 1427.45 573.582 1427.48 574.761L1426.38 576.166C1424.24 573.401 1421.56 571.11 1418.49 569.439C1405.15 562.283 1390.18 570.862 1388.98 571.549C1386.58 572.904 1384.46 574.571 1376.63 583.896C1372.11 589.317 1365.9 596.997 1358.86 606.787H1342.3C1343.42 594.602 1342.71 582.317 1340.19 570.343C1337.87 559.405 1332.43 535.285 1311.68 514.725C1298.63 501.805 1284.24 494.956 1273.37 491.26C1269.68 490.113 1264.05 488.391 1257.14 486.39C1245.48 483.015 1237.46 480.969 1229.33 478.8C1221.2 476.632 1209.51 473.483 1194.95 469.313L1193.51 441.755C1197.68 439.345 1201.44 436.297 1204.66 432.72C1215.79 420.287 1216.75 405.076 1217.21 395.675C1217.88 381.859 1219.09 357.152 1202.25 342.673C1190.14 332.282 1175.19 332.734 1154.96 333.339C1135.11 333.94 1117.18 334.487 1105.27 347.796C1094.95 359.321 1094.83 374.066 1094.73 386.648C1094.65 395.778 1094.44 422.026 1113.1 436.641C1117.69 440.194 1122.95 442.789 1128.56 444.272C1127.62 453.578 1126.68 462.881 1125.75 472.182C1100.45 477.974 1075.97 486.876 1052.86 498.683C1019.71 515.697 1010.12 528.319 1007.38 532.114C995.278 548.893 991.773 566.869 989.916 576.387C987.388 589.379 986.779 602.672 988.109 615.841L970.941 615.24C969.618 610.451 965.344 597.571 953.471 591.142C950.015 589.272 945.208 588.391 935.599 586.625C920.542 583.86 917.416 585.694 916.024 587.329C914.529 589.087 914.348 591.395 914.42 593.062L910.806 594.156Z" fill="#FFBBBE"/>
<path d="M1129.16 333.434C1131.11 339.235 1140.17 364.105 1166.91 378.81C1190.89 392.002 1213.89 388.654 1220.52 387.448C1221.42 382.478 1222.85 370.805 1217.31 358.132C1210.62 342.844 1198.1 335.932 1193.21 333.235C1165.08 317.694 1133.63 331.401 1129.16 333.434Z" fill="#F06D57"/>
<path d="M1142.76 382.727C1139.03 379.393 1134.44 377.153 1129.51 376.253C1119.62 374.491 1112.01 378.963 1110.09 380.165" stroke="black" stroke-width="5" stroke-linecap="round" stroke-linejoin="round"/>
<path d="M1167.66 382.727C1171.4 379.393 1175.98 377.153 1180.91 376.253C1190.8 374.491 1198.41 378.963 1200.34 380.165" stroke="black" stroke-width="5" stroke-linecap="round" stroke-linejoin="round"/>
<path d="M1145.25 400.346L1157.3 408.329" stroke="black" stroke-width="5" stroke-linecap="round" stroke-linejoin="round"/>
<path d="M1137.04 420.978C1143.23 424.58 1150.3 426.383 1157.46 426.183C1164.61 425.983 1171.57 423.79 1177.55 419.849" stroke="black" stroke-width="5" stroke-linecap="round" stroke-linejoin="round"/>
<path d="M1055.87 710.713C1090.84 707.256 1128.05 704.704 1167.31 703.484C1214.46 702.02 1258.86 702.657 1300.13 704.69L1180.26 757.697L1055.87 710.713Z" fill="#6F493D"/>
<path d="M1092.21 480.811C1094.42 517.707 1125.94 546.516 1162.69 545.464C1199.19 544.42 1228.88 514.292 1229.35 477.599L1273.33 486.232C1273.59 514.076 1273.86 541.919 1274.13 569.76C1277.11 574.729 1287.33 593.117 1282.06 615.24C1280.39 622.157 1277.43 628.696 1273.33 634.512L1276.04 704.69C1239.97 704.504 1202.72 705.005 1164.3 706.195C1128.73 707.336 1094.19 709.043 1060.69 711.313V642.043C1056.69 635.015 1053.84 627.388 1052.26 619.455C1048.3 599.45 1053.62 582.997 1056.62 575.484C1054.57 549.281 1052.51 523.078 1050.45 496.876L1092.21 480.811Z" fill="#0EBDFF"/>
<path d="M1056.62 578.646C1054.21 584.013 1046.92 601.985 1053.01 623.372C1061.99 654.928 1092.22 666.29 1095.43 667.442" stroke="black" stroke-width="5" stroke-linecap="round" stroke-linejoin="round"/>
<path d="M1273.19 570.067C1275.24 573.071 1288.09 592.629 1281.68 616.735C1276.2 637.245 1258.86 653.094 1237.03 657.706" stroke="black" stroke-width="5" stroke-linecap="round" stroke-linejoin="round"/>
<path d="M933.657 625.874L942.661 624.876L942.814 615.841C940.215 616.143 937.581 615.816 935.134 614.887C931.856 613.603 929.069 611.313 927.174 608.346C929.252 612.19 930.944 616.23 932.225 620.408C932.821 622.31 933.286 624.14 933.657 625.874Z" fill="#FFECE5"/>
<path d="M927.066 608.079C928.875 610.542 931.251 612.533 933.992 613.884C936.733 615.235 939.759 615.906 942.814 615.841L942.661 624.876" stroke="black" stroke-width="5" stroke-linecap="round" stroke-linejoin="round"/>
<path d="M971.741 652.285C961.929 643.01 949.257 637.346 935.803 636.22C934.941 630.41 933.53 624.695 931.588 619.152C930.585 616.292 921.956 592.159 913.932 593.085C911.809 593.329 910.418 595.244 909.699 596.247C900.515 609.272 912.437 647.022 914.52 653.469" stroke="black" stroke-width="5" stroke-linecap="round" stroke-linejoin="round"/>
<path d="M991.118 647.465C991.524 650.627 992.224 659.504 987.052 668.549C984.155 673.776 979.817 678.062 974.556 680.896C973.462 681.469 968.457 684.013 959.647 684.361C946.157 684.889 935.152 679.843 928.927 676.229" stroke="black" stroke-width="5" stroke-linecap="round" stroke-linejoin="round"/>
<path d="M1417.11 601.032L1408.11 600.033L1407.96 590.998C1410.56 591.301 1413.19 590.974 1415.64 590.044C1418.92 588.762 1421.7 586.471 1423.6 583.503C1421.52 587.347 1419.83 591.387 1418.55 595.565C1417.95 597.467 1417.49 599.297 1417.11 601.032Z" fill="#FFECE5"/>
<path d="M1423.71 583.236C1421.9 585.698 1419.52 587.688 1416.78 589.039C1414.04 590.39 1411.01 591.061 1407.96 590.998L1408.11 600.033" stroke="black" stroke-width="5" stroke-linecap="round" stroke-linejoin="round"/>
<path d="M1379.04 627.442C1388.85 618.168 1401.53 612.504 1414.98 611.377C1415.84 605.567 1417.26 599.852 1419.2 594.309C1420.2 591.449 1428.83 567.316 1436.85 568.242C1438.98 568.486 1440.37 570.401 1441.09 571.404C1450.27 584.429 1438.35 622.179 1436.27 628.626" stroke="black" stroke-width="5" stroke-linecap="round" stroke-linejoin="round"/>
<path d="M1359.65 622.622C1359.24 625.784 1358.55 634.661 1363.72 643.706C1366.61 648.935 1370.95 653.221 1376.22 656.053C1377.31 656.627 1382.31 659.17 1391.12 659.518C1404.61 660.046 1415.62 655 1421.85 651.386" stroke="black" stroke-width="5" stroke-linecap="round" stroke-linejoin="round"/>
<path d="M1096.23 829.98C1150.57 764.925 1201.49 720.15 1238.99 690.835C1268.39 667.848 1292.4 652.118 1322.72 654.693C1349.49 656.952 1380.75 673.482 1393.8 703.484C1406.25 732.108 1396.24 759.504 1391.39 772.754C1377.1 811.841 1346.18 831.579 1335.37 837.809L1190.2 838.415C1188.88 848.67 1184.75 855.13 1182.37 858.293C1175.35 867.554 1165.82 871.204 1157.07 874.556C1146.62 878.559 1145.37 876.874 1136.59 879.978C1119.66 885.959 1120.56 893.558 1104.67 901.057C1087.78 909.026 1065.62 910.445 1061.3 902.864C1060.8 901.973 1060.52 900.975 1060.49 899.955C1057.39 900.562 1054.18 900.39 1051.15 899.453C1048.79 898.703 1044.6 897.371 1042.62 893.327C1041.64 891.227 1041.36 888.871 1041.82 886.601C1041.41 886.601 1035.58 886.745 1032.18 881.884C1031 880.173 1030.33 878.169 1030.22 876.096C1030.11 874.023 1030.58 871.96 1031.58 870.138C1030.62 869.804 1026.05 868.105 1023.85 863.312C1023.1 861.618 1022.72 859.783 1022.73 857.929C1022.75 856.076 1023.16 854.248 1023.95 852.569C1027.21 845.991 1039.16 843.081 1053.16 847.048C1061.92 842.465 1070.98 838.473 1080.27 835.099C1085.81 833.088 1091.15 831.403 1096.23 829.98Z" fill="#FFBBBE"/>
<path d="M1320.63 788.765C1323.6 791.758 1326.82 794.497 1330.25 796.951C1347.11 808.991 1365.22 811.277 1375.83 811.607L1345.31 841.125L1279.65 841.514C1281.16 827.894 1282.66 814.274 1284.17 800.651C1296.96 799.016 1309.33 794.979 1320.63 788.751V788.765Z" fill="#6F493D"/>
<path d="M1319.56 815.826C1304.24 808.806 1287.97 801.821 1270.76 795.045C1253.14 788.087 1236.07 781.943 1219.71 776.522C1197.6 762.639 1179.82 750.861 1167.61 742.639C1138.67 723.136 1128.13 714.873 1107.67 704.889C1097.85 700.096 1082.74 692.904 1062.35 687.523C1033.65 679.947 995.617 669.904 969.433 689.782C949.392 704.993 945.841 730.482 944.585 739.477C938.712 781.491 964.31 822.151 996.539 841.125C1005.22 846.213 1014.62 849.945 1024.43 852.189C1024.89 851.144 1025.5 850.172 1026.24 849.307C1033.64 840.805 1051.51 846.506 1053.15 847.048L1087.28 834.9C1093.15 835.325 1105.01 836.178 1120.01 837.208C1183.05 841.541 1190.99 841.41 1199.82 849.257C1213.2 861.143 1217.1 881.116 1229.03 882.083C1235.42 882.602 1242.59 881.179 1242.59 881.179C1245.99 880.507 1249.32 879.499 1252.53 878.171C1266.64 882.773 1281.68 883.807 1296.3 881.179C1301.72 884.016 1308.04 883.637 1312.44 880.208C1316.59 876.96 1317.41 872.203 1317.59 870.96C1321.9 869.898 1325.83 867.638 1328.92 864.441C1332.01 861.244 1334.14 857.24 1335.05 852.889C1337.01 851.57 1341.89 847.888 1343.93 841.292C1344.56 839.245 1344.87 837.11 1344.84 834.968C1347.35 832.559 1349.21 829.556 1350.26 826.235C1350.66 824.934 1354.03 813.287 1346.49 807.861C1341.46 804.247 1334.05 805.182 1329.63 808.914C1328.05 810.265 1326.81 811.967 1326.02 813.883L1319.56 815.826Z" fill="#FFBBBE"/>
<path d="M1021.58 813.956C1012.67 826.387 999.571 835.183 984.693 838.722L1030.17 862.72L1086.79 858.681C1089.69 850.977 1092.58 843.274 1095.48 835.573C1069.73 832.946 1044.68 825.619 1021.58 813.956Z" fill="#6F493D"/>
<path d="M1284.73 800.588C1295.85 799.1 1306.65 795.802 1316.7 790.825C1345.55 776.486 1359.54 752.266 1364.68 742.034" stroke="black" stroke-width="5" stroke-linecap="round" stroke-linejoin="round"/>
<path d="M1080.42 889.013C1077.75 887.515 1074.74 886.737 1071.69 886.754C1069.65 886.754 1066.56 886.804 1064.01 888.859C1060.84 891.403 1059.89 895.74 1060.54 899.101C1060.88 900.606 1061.5 902.03 1062.38 903.294C1065.85 908.033 1077.16 908.891 1090.72 905.927" stroke="black" stroke-width="5" stroke-linecap="round" stroke-linejoin="round"/>
<path d="M1062.6 880.881C1058.54 877.439 1053.06 876.513 1048.54 878.573C1043.36 880.94 1039.8 887.12 1041.42 892.022C1043.04 896.924 1049.06 898.473 1051.25 899.051C1054.3 899.835 1057.49 899.852 1060.54 899.101" stroke="black" stroke-width="5" stroke-linecap="round" stroke-linejoin="round"/>
<path d="M1053.06 867.328C1052.43 866.818 1047.24 862.774 1040.71 864.414C1036.4 865.503 1031.16 869.158 1030.77 874.855C1030.4 880.407 1034.77 885.973 1041.3 887.247" stroke="black" stroke-width="5" stroke-linecap="round" stroke-linejoin="round"/>
<path d="M1053.16 847.048C1040.06 842.079 1028.24 844.866 1024.85 851.263C1023.37 854.064 1023.1 858.306 1024.45 862.106C1025.82 865.805 1028.56 868.835 1032.11 870.567" stroke="black" stroke-width="5" stroke-linecap="round" stroke-linejoin="round"/>
<path d="M1174.04 746.945C1182.43 738.998 1194.47 727.871 1209.44 714.995C1222.75 703.547 1233.44 695.036 1243.6 687.257C1268.51 668.183 1278.57 662.902 1289.35 659.409C1297.31 656.77 1305.6 655.25 1313.98 654.892C1321.34 654.63 1328.71 655.301 1335.9 656.888C1355.57 661.307 1369.38 672.289 1376.34 678.777" stroke="black" stroke-width="5" stroke-linecap="round" stroke-linejoin="round"/>
<path d="M970.336 775.167C985.895 791.63 1004.21 805.251 1024.45 815.415C1031.01 818.695 1056.89 831.159 1092.88 835.293C1118.26 838.216 1125.24 834.304 1153.46 837.8C1169.93 839.848 1186.17 843.479 1201.95 848.643" stroke="black" stroke-width="5" stroke-linecap="round" stroke-linejoin="round"/>
<path d="M1294.71 862.657C1299.5 857.43 1307.24 856.716 1312.33 860.551C1316.78 863.913 1318.3 870.088 1316.39 875.008C1313.99 881.188 1306.42 884.775 1299.08 882.386" stroke="black" stroke-width="5" stroke-linecap="round" stroke-linejoin="round"/>
<path d="M1310.97 844.134C1317.06 839.616 1324.49 839.241 1329.2 842.779C1333.9 846.316 1334 852.266 1334 853.025C1334.05 860.542 1327.36 868.001 1317.19 871.096" stroke="black" stroke-width="5" stroke-linecap="round" stroke-linejoin="round"/>
<path d="M1321.81 828.173C1323.47 826.198 1325.65 824.737 1328.1 823.963C1330.56 823.189 1333.18 823.134 1335.67 823.804C1341.83 825.53 1344.77 831.435 1345.31 835.853C1346.15 842.761 1341.62 849.939 1334.01 853.02" stroke="black" stroke-width="5" stroke-linecap="round" stroke-linejoin="round"/>
<path d="M1345.22 834.891C1347.49 832.9 1349.25 830.389 1350.35 827.572C1350.8 826.379 1354.23 817.457 1348.55 811.006C1346.86 809.097 1344.69 807.682 1342.26 806.912C1339.83 806.143 1337.24 806.047 1334.77 806.637C1327.89 808.367 1325.35 814.769 1325.13 815.374L1319.55 815.826C1303.37 807.927 1286.78 800.87 1269.86 794.683C1244.39 785.39 1237.19 785.065 1219.71 776.522C1213.78 773.617 1210.32 771.552 1177.44 749.212C1135.67 720.832 1132.15 717.977 1120.38 711.566C1105.61 703.464 1090.19 696.599 1074.28 691.042C1058.01 685.452 1041.22 681.497 1024.17 679.238C1011.52 677.571 1004.07 677.584 996.213 679.012C987.568 680.602 979.27 683.699 971.696 688.16" stroke="black" stroke-width="5" stroke-linecap="round" stroke-linejoin="round"/>
<path d="M1602.24 621.239H1483.95C1488.51 660.941 1493.07 700.643 1497.64 740.344H1586.35C1591.64 700.643 1596.94 660.941 1602.24 621.239Z" stroke="black" stroke-width="5.71" stroke-linecap="round" stroke-linejoin="round"/>
<path d="M1535.14 525.36C1556.45 505.102 1540.26 462.979 1534.14 447.063C1514.96 397.197 1471.79 371.798 1452.11 361.95L1438.26 381.046C1439.28 372.803 1440.3 364.56 1441.33 356.316C1398.69 334.044 1359.72 333.321 1344.37 351.518C1334.68 363.007 1336.51 379.528 1337.85 391.663C1343.14 439.55 1378.33 471.504 1393.7 483.824L1435.27 445.726L1409.55 494.463L1445.42 514.743L1460.6 486.101L1453.53 518.407C1484.42 539.532 1518.74 540.941 1535.14 525.36Z" fill="#1A936F"/>
<path d="M1680.2 356.705C1697.52 369.806 1691.39 403.77 1689.09 416.605C1681.86 456.813 1654.9 481.032 1642.4 490.75L1630.42 477.712C1632.14 483.892 1633.86 490.066 1635.58 496.234C1608.63 518.001 1581.59 522.889 1568.68 510.691C1560.55 503.011 1559.78 490.167 1559.23 480.766C1557.05 443.607 1577.63 415.259 1586.83 404.15L1620.43 428.604L1596.56 394.269L1619.05 374.834L1633.12 395.01L1624.24 371.13C1643.16 351.541 1666.88 346.639 1680.2 356.705Z" fill="#1A936F"/>
<path d="M1663.03 407.109C1629.02 431.68 1601.19 463.811 1581.72 500.971C1562.25 538.131 1551.67 579.305 1550.82 621.248H1535.58C1536.75 606.92 1536.53 592.512 1534.91 578.226C1529.66 531.793 1510.97 499.238 1503.1 485.794C1466.21 422.961 1408.64 392.887 1385.84 382.379" stroke="black" stroke-width="5.71" stroke-linecap="round" stroke-linejoin="round"/>
<path d="M1095.43 277.324H918.288V295.72H1095.43V277.324Z" stroke="black" stroke-width="5" stroke-linecap="round" stroke-linejoin="round"/>
<path d="M986.193 277.324H933.444L928.927 236.678H990.711L986.193 277.324Z" stroke="black" stroke-width="5" stroke-linecap="round" stroke-linejoin="round"/>
<path d="M931.909 236.678C931.909 236.678 908.471 202.475 927.901 197.067C947.332 191.659 972.505 223.907 959.819 225.529C947.133 227.15 955.342 189.473 973.973 193.882C992.604 198.291 982.385 236.678 982.385 236.678" stroke="black" stroke-width="5" stroke-linecap="round" stroke-linejoin="round"/>
<path d="M1028.8 276.791C1049.83 276.791 1066.88 259.74 1066.88 238.707C1066.88 217.673 1049.83 200.622 1028.8 200.622C1007.76 200.622 990.711 217.673 990.711 238.707C990.711 259.74 1007.76 276.791 1028.8 276.791Z" stroke="black" stroke-width="5" stroke-linecap="round" stroke-linejoin="round"/>
<path d="M1034.71 217.297L1028.8 238.707L1041.64 236.678" stroke="black" stroke-width="5" stroke-linecap="round" stroke-linejoin="round"/>
<path d="M1668.83 721.776V690.464H1572.49V721.776H1609.59V791.078H1572.49V822.386H1668.83V791.078H1631.73V721.776H1668.83Z" fill="#FFECE5" stroke="black" stroke-width="5.71" stroke-linecap="round" stroke-linejoin="round"/>
<path d="M1472.22 862.706C1486.03 862.706 1497.22 841.141 1497.22 814.539C1497.22 787.936 1486.03 766.371 1472.22 766.371C1458.41 766.371 1447.22 787.936 1447.22 814.539C1447.22 841.141 1458.41 862.706 1472.22 862.706Z" fill="#F06D57"/>
<path d="M1472.22 766.371H1445.3V862.711H1472.22V766.371Z" fill="#F06D57"/>
<path d="M1447.22 862.706C1461.02 862.706 1472.22 841.141 1472.22 814.539C1472.22 787.936 1461.02 766.371 1447.22 766.371C1433.41 766.371 1422.22 787.936 1422.22 814.539C1422.22 841.141 1433.41 862.706 1447.22 862.706Z" fill="#6F493D"/>
<path d="M1577.24 862.706C1591.04 862.706 1602.24 841.141 1602.24 814.539C1602.24 787.936 1591.04 766.371 1577.24 766.371C1563.43 766.371 1552.24 787.936 1552.24 814.539C1552.24 841.141 1563.43 862.706 1577.24 862.706Z" fill="#F06D57"/>
<path d="M1577.24 766.371H1550.32V862.711H1577.24V766.371Z" fill="#F06D57"/>
<path d="M1552.24 862.706C1566.04 862.706 1577.24 841.141 1577.24 814.539C1577.24 787.936 1566.04 766.371 1552.24 766.371C1538.43 766.371 1527.23 787.936 1527.23 814.539C1527.23 841.141 1538.43 862.706 1552.24 862.706Z" fill="#6F493D"/>
<path d="M1546.12 825.607C1552.23 825.607 1557.19 820.651 1557.19 814.539C1557.19 808.426 1552.23 803.47 1546.12 803.47C1540.01 803.47 1535.05 808.426 1535.05 814.539C1535.05 820.651 1540.01 825.607 1546.12 825.607Z" fill="#F06D57"/>
<path d="M1546.12 803.47H1486.26V825.607H1546.12V803.47Z" fill="#F06D57"/>
<path d="M1094.72 387.335C1100.36 383.274 1105.51 378.574 1110.08 373.33C1122.28 359.28 1127.46 344.457 1129.79 335.264C1130.09 333.746 1130.12 332.033 1129.2 330.71C1126.21 326.409 1114.7 328.329 1107.82 331.916C1091.32 340.5 1088.84 365.162 1087.94 374.383C1087.17 382.112 1086.88 395.873 1092.76 412.634L1097.59 412.286C1095.44 404.15 1094.47 395.747 1094.71 387.335H1094.72Z" fill="#F06D57"/>
<path d="M1129.8 335.264C1129.12 332.458 1130.16 330.71 1130.16 330.71C1130.65 330.258 1131.45 329.553 1132.49 328.763C1142.76 320.179 1161.98 319.8 1178.15 324.087C1189.3 327.037 1195.02 330.683 1201.64 335.982C1221.74 352.061 1217.45 379.262 1217.21 383.969C1197.73 374.382 1131.3 341.403 1129.8 335.264Z" fill="#F06D57"/>
</svg>
